HIERARCHY
ROOT Hips
{
	OFFSET 0.000000 0.000000 0.000000
	CHANNELS 6 Xposition Yposition Zposition Xrotation Yrotation Zrotation
	JOINT LeftUpLeg_virtual
	{
		OFFSET 0.000000 0.000000 0.000000
		CHANNELS 3 Xrotation Yrotation Zrotation
		JOINT LeftUpLeg
		{
			OFFSET 13.026900 -6.336304 -1.092800
			CHANNELS 3 Xrotation Yrotation Zrotation
			JOINT LeftLeg
			{
				OFFSET 0.524474 -46.096886 9.782700
				CHANNELS 3 Xrotation Yrotation Zrotation
				JOINT LeftFoot
				{
					OFFSET -0.524474 -53.427422 -12.948200
					CHANNELS 3 Xrotation Yrotation Zrotation
					JOINT LeftToeBase
					{
						OFFSET 0.192200 -14.009700 16.364100
						CHANNELS 3 Xrotation Yrotation Zrotation
						JOINT LeftToe_End
						{
							OFFSET -1.784700 -0.561700 9.474800
							CHANNELS 3 Xrotation Yrotation Zrotation
							End Site
							{
								OFFSET 0 0 0
							}
						}
					}
				}
			}
		}
	}
	JOINT RightUpLeg_virtual
	{
		OFFSET 0.000000 0.000000 0.000000
		CHANNELS 3 Xrotation Yrotation Zrotation
		JOINT RightUpLeg
		{
			OFFSET -12.883000 -6.336304 -1.092800
			CHANNELS 3 Xrotation Yrotation Zrotation
			JOINT RightLeg
			{
				OFFSET -0.524587 -46.096825 9.782800
				CHANNELS 3 Xrotation Yrotation Zrotation
				JOINT RightFoot
				{
					OFFSET 0.524587 -53.427383 -12.948300
					CHANNELS 3 Xrotation Yrotation Zrotation
					JOINT RightToeBase
					{
						OFFSET -0.192200 -14.009700 16.364100
						CHANNELS 3 Xrotation Yrotation Zrotation
						JOINT RightToe_End
						{
							OFFSET 1.784700 -0.561700 9.474800
							CHANNELS 3 Xrotation Yrotation Zrotation
							End Site
							{
								OFFSET 0 0 0
							}
						}
					}
				}
			}
		}
	}
	JOINT Spine_virtual
	{
		OFFSET 0.000000 0.000000 0.000000
		CHANNELS 3 Xrotation Yrotation Zrotation
		JOINT Spine
		{
			OFFSET 0.072000 7.257294 -0.789700
			CHANNELS 3 Xrotation Yrotation Zrotation
			JOINT Spine1
			{
				OFFSET 0.000000 12.508769 -0.658067
				CHANNELS 3 Xrotation Yrotation Zrotation
				JOINT Spine1_split
				{
					OFFSET 0.000000 12.508769 -0.658067
					CHANNELS 3 Xrotation Yrotation Zrotation
					JOINT Spine2
					{
						OFFSET 0.000000 12.508769 -0.658067
						CHANNELS 3 Xrotation Yrotation Zrotation
						JOINT Neck_virtual
						{
							OFFSET 0.000000 0.000000 0.000000
							CHANNELS 3 Xrotation Yrotation Zrotation
							JOINT Neck
							{
								OFFSET 0.000000 14.033295 7.520400
								CHANNELS 3 Xrotation Yrotation Zrotation
								JOINT Head
								{
									OFFSET 0.000000 8.198502 5.703100
									CHANNELS 3 Xrotation Yrotation Zrotation
									JOINT HeadTop_End
									{
										OFFSET 0.000000 17.760803 13.332701
										CHANNELS 3 Xrotation Yrotation Zrotation
										End Site
										{
											OFFSET 0 0 0
										}
									}
								}
							}
						}
						JOINT LeftShoulder_virtual
						{
							OFFSET 0.000000 0.000000 0.000000
							CHANNELS 3 Xrotation Yrotation Zrotation
							JOINT LeftShoulder
							{
								OFFSET 6.292450 5.785301 -0.669000
								CHANNELS 3 Xrotation Yrotation Zrotation
								JOINT LeftShoulder_split
								{
									OFFSET 6.292450 5.785301 -0.669000
									CHANNELS 3 Xrotation Yrotation Zrotation
									JOINT LeftArm
									{
										OFFSET 13.907140 -6.093903 1.965100
										CHANNELS 3 Xrotation Yrotation Zrotation
										JOINT LeftForeArm
										{
											OFFSET 34.140198 0.000000 0.000000
											CHANNELS 3 Xrotation Yrotation Zrotation
											JOINT LeftHand
											{
												OFFSET 40.960209 0.000000 0.000000
												CHANNELS 3 Xrotation Yrotation Zrotation
												End Site
												{
													OFFSET 0 0 0
												}
											}
										}
									}
								}
							}
						}
						JOINT RightShoulder_virtual
						{
							OFFSET 0.000000 0.000000 0.000000
							CHANNELS 3 Xrotation Yrotation Zrotation
							JOINT RightShoulder
							{
								OFFSET -6.292450 5.785301 -0.669000
								CHANNELS 3 Xrotation Yrotation Zrotation
								JOINT RightShoulder_split
								{
									OFFSET -6.292450 5.785301 -0.669000
									CHANNELS 3 Xrotation Yrotation Zrotation
									JOINT RightArm
									{
										OFFSET -13.907140 -6.093903 1.965100
										CHANNELS 3 Xrotation Yrotation Zrotation
										JOINT RightForeArm
										{
											OFFSET -34.140198 0.000000 0.000000
											CHANNELS 3 Xrotation Yrotation Zrotation
											JOINT RightHand
											{
												OFFSET -40.960209 0.000000 0.000000
												CHANNELS 3 Xrotation Yrotation Zrotation
												End Site
												{
													OFFSET 0 0 0
												}
											}
										}
									}
								}
							}
						}
					}
				}
			}
		}
	}
}
MOTION
Frames: 7
Frame Time: 0.03333333
78.164635 113.375557 183.642899 0.000000 0.000000 0.000000 -7.642690 37.292481 9.809616 -19.176659 8.775098 -13.463442 35.133557 -10.707974 -1.809403 13.388260 0.821571 15.016273 -22.612946 0.300981 2.398142 0.000000 0.000000 0.000000 -6.919158 39.723048 9.608130 -13.047461 15.686054 -0.686571 53.022748 -6.378195 -1.155277 7.041534 -8.111872 -2.934111 -35.484079 -0.383466 4.750480 0.000000 0.000000 0.000000 -7.394392 38.423058 9.721021 4.135919 -1.644398 -5.764424 -1.809472 -1.270775 1.002958 0.797723 0.789599 0.137580 0.000000 0.000000 0.000000 -1.688488 -1.129272 1.207034 -8.955258 3.492926 2.269997 6.292566 6.600287 -2.864354 0.000000 0.000000 0.000000 -1.994269 -0.805437 1.264856 0.814410 8.803982 -3.202309 0.690914 2.581834 -0.966572 6.425041 -8.761026 -68.773161 11.732121 -24.501084 4.295897 0.000000 0.000000 0.000000 -1.656537 -1.149023 1.214898 0.649734 2.369686 3.264417 1.369401 0.944204 -2.559992 -0.767498 7.889090 77.989941 11.661518 14.812025 -3.096185 0.000000 0.000000 0.000000 
80.470741 114.187073 186.199707 0.000000 0.000000 0.000000 -6.910629 39.293576 8.130978 -15.938260 6.896620 -12.568055 32.733077 -10.793505 -1.436643 8.867638 2.264786 16.468631 -21.452304 0.797749 1.084020 0.000000 0.000000 0.000000 -6.269512 41.262464 7.919086 -17.852545 15.524771 0.202988 48.802733 -6.543451 -1.278250 6.479011 -8.179091 -5.584384 -27.322556 0.118467 4.467702 0.000000 0.000000 0.000000 -6.979066 39.767055 8.426657 4.722032 -2.191650 -5.168040 -2.066452 -1.687254 1.103496 0.905570 0.897161 0.096815 0.000000 0.000000 0.000000 -1.753487 -1.487470 1.337676 -8.839344 3.555608 2.638634 6.373197 6.773867 -3.327202 0.000000 0.000000 0.000000 -2.004686 -1.263009 1.464976 0.617477 7.595286 -2.959850 0.750623 3.092080 -0.826331 4.996978 -10.868981 -68.558256 11.842792 -24.830881 4.521352 0.000000 0.000000 0.000000 -1.862012 -1.578477 1.388119 0.333839 1.200559 3.927396 1.796514 1.220212 -2.592966 -0.457222 6.769814 77.204627 11.474994 14.735307 -3.215441 0.000000 0.000000 0.000000 
82.956696 115.194748 188.783463 0.000000 0.000000 0.000000 -5.982018 41.688271 6.651750 -12.213856 6.221459 -11.566294 29.150158 -11.947375 -1.338245 4.878539 2.405213 17.075104 -21.674760 1.125399 0.286216 0.000000 0.000000 0.000000 -5.329434 43.144789 6.392236 -21.658945 13.940247 0.099635 43.072197 -4.877104 -1.612752 10.599446 -6.345624 -3.821987 -24.691844 0.508842 3.157014 0.000000 0.000000 0.000000 -6.323501 41.485862 7.246169 5.131763 -2.639452 -4.916384 -2.286247 -2.071805 1.221072 1.141318 1.032321 -0.045916 0.000000 0.000000 0.000000 -1.844294 -1.840654 1.468756 -8.735826 3.411105 3.386746 6.200091 6.898946 -3.708825 0.000000 0.000000 0.000000 -2.090060 -1.696436 1.635423 0.465925 6.326191 -2.716694 0.818610 3.454209 -0.730409 3.482037 -12.869162 -68.399850 11.920628 -24.978698 4.780433 0.000000 0.000000 0.000000 -2.042576 -2.001897 1.551218 0.040475 0.016303 4.781821 2.212976 1.573897 -2.610070 0.091394 5.695236 76.417201 11.349198 14.866803 -3.406606 0.000000 0.000000 0.000000 
85.494736 116.003601 191.398056 0.000000 0.000000 0.000000 -5.206413 44.538926 5.775144 -8.804062 7.048245 -10.352077 25.522634 -14.405716 -1.734483 3.547539 0.942152 17.038694 -23.193915 1.063525 0.436400 0.000000 0.000000 0.000000 -4.222737 45.852238 5.309971 -24.218652 11.658752 -0.897106 36.147250 -1.937728 -1.762130 16.368366 -2.960944 -0.057355 -24.976028 0.756393 1.464724 0.000000 0.000000 0.000000 -5.743539 43.677414 6.537906 5.407457 -3.026327 -5.181721 -2.406216 -2.423496 1.407188 1.137194 1.147061 -0.107822 0.000000 0.000000 0.000000 -1.959837 -2.155690 1.646650 -8.755666 3.062005 4.440177 5.782958 6.966202 -3.902848 0.000000 0.000000 0.000000 -2.225969 -2.068341 1.823566 0.358812 5.134743 -2.347540 0.913077 3.634504 -0.712619 1.979290 -14.543843 -68.344819 11.908423 -25.245539 5.035098 0.000000 0.000000 0.000000 -2.199391 -2.379230 1.744090 -0.212343 -1.129412 5.756138 2.674645 2.003034 -2.600745 0.885595 4.846220 75.610700 11.326819 15.158176 -3.665054 0.000000 0.000000 0.000000 
88.095222 116.420067 194.099564 0.000000 0.000000 0.000000 -4.469045 47.730871 5.456305 -6.301846 9.054462 -9.203157 23.040545 -17.558835 -2.475809 4.307460 -1.424934 17.852472 -23.608158 0.729100 0.816257 0.000000 0.000000 0.000000 -2.822101 49.352328 4.622211 -25.348553 8.930698 -2.537887 29.395806 0.768594 -1.429253 21.086841 0.583601 2.618842 -24.980763 0.942351 0.040068 0.000000 0.000000 0.000000 -5.420403 46.578396 6.472151 5.538956 -3.427417 -5.996507 -2.381192 -2.732269 1.690158 0.995527 1.331457 -0.174917 0.000000 0.000000 0.000000 -2.070015 -2.399662 1.891434 -9.047991 2.483541 5.641394 5.222676 6.935418 -3.862106 0.000000 0.000000 0.000000 -2.337511 -2.334707 2.077841 0.292027 4.086835 -1.761799 1.084116 3.609609 -0.829363 0.528287 -15.778570 -68.366567 11.808517 -25.853159 5.286675 0.000000 0.000000 0.000000 -2.304822 -2.673043 1.995329 -0.425710 -2.164905 6.822674 3.205669 2.507406 -2.557641 1.738604 4.216266 74.784281 11.393651 15.448006 -3.943629 0.000000 0.000000 0.000000 
90.759430 116.326378 197.296326 0.000000 0.000000 0.000000 -3.571458 50.633627 5.457644 -4.019982 11.652039 -8.330655 21.758959 -20.641544 -3.166883 5.088381 -3.831302 19.919202 -21.822057 0.375835 1.036910 0.000000 0.000000 0.000000 -1.455452 53.128019 4.384780 -25.973188 6.074029 -4.448588 23.954628 2.281697 -0.664786 24.022110 2.633271 3.137582 -23.239155 1.010528 -0.729170 0.000000 0.000000 0.000000 -5.346964 49.787421 6.943969 5.530163 -3.804902 -7.249777 -2.183986 -2.967858 2.057237 0.777316 1.592498 -0.183808 0.000000 0.000000 0.000000 -2.099133 -2.548721 2.206915 -9.637102 1.729109 6.865314 4.666758 6.810112 -3.582308 0.000000 0.000000 0.000000 -2.401434 -2.478231 2.417636 0.253547 3.194654 -0.957520 1.178087 3.321932 -1.040553 -0.866932 -16.466498 -68.475440 11.608330 -26.755407 5.508640 0.000000 0.000000 0.000000 -2.317957 -2.845259 2.312950 -0.604614 -3.032101 7.911843 3.649374 2.857836 -2.405742 2.427340 3.716615 73.982970 11.490618 15.485232 -4.199156 0.000000 0.000000 0.000000 
93.434425 115.704201 200.597412 0.000000 0.000000 0.000000 -2.935924 53.228965 5.804651 -1.681846 13.734547 -7.593452 21.296130 -23.372549 -3.497219 4.789847 -5.806424 21.385584 -19.430551 0.216524 1.015430 0.000000 0.000000 0.000000 -0.544284 56.563057 4.519873 -26.765111 3.719694 -5.982459 20.699706 2.911212 0.110694 25.304606 3.008230 2.206501 -20.409526 1.005436 -0.934442 0.000000 0.000000 0.000000 -5.892547 52.908141 7.912891 5.413183 -4.136614 -8.660875 -1.859617 -3.082548 2.487678 0.537265 1.806000 -0.283781 0.000000 0.000000 0.000000 -1.978508 -2.595663 2.561581 -10.306546 0.936062 7.905916 4.326223 6.537388 -3.132486 0.000000 0.000000 0.000000 -2.381373 -2.504821 2.800812 0.224570 2.567430 -0.045252 1.152622 2.857658 -1.381778 -2.027242 -16.659166 -68.664192 11.396232 -27.852914 5.689212 0.000000 0.000000 0.000000 -2.222807 -2.888933 2.667573 -0.756536 -3.655594 8.937713 3.822096 2.912900 -2.204972 2.775735 3.265776 73.255630 11.552494 15.036369 -4.385002 0.000000 0.000000 0.000000 
